<svg xmlns="http://www.w3.org/2000/svg" width="28.001" height="28.001" viewBox="0 0 28.001 28.001">
  <path id="Exclusion_4" data-name="Exclusion 4" d="M-5094.457-73.5h-25.086A1.459,1.459,0,0,1-5121-74.957v-25.087a1.458,1.458,0,0,1,1.458-1.456h25.086a1.458,1.458,0,0,1,1.458,1.456v25.087A1.459,1.459,0,0,1-5094.457-73.5Zm-11.5-23.816a3.229,3.229,0,0,0-2.282.932l-6.844,6.754a3.139,3.139,0,0,0-.946,2.251,3.139,3.139,0,0,0,.946,2.251l6.844,6.754a3.231,3.231,0,0,0,2.282.932,3.229,3.229,0,0,0,2.282-.932l2.28-2.252-2.28-2.25-2.282,2.249h0l-6.843-6.752,6.844-6.754,4.563,4.5-4.562,4.5,2.283,2.251,4.563-4.5a3.145,3.145,0,0,0,.944-2.252,3.145,3.145,0,0,0-.944-2.252l-4.562-4.5A3.231,3.231,0,0,0-5105.96-97.316Z" transform="translate(5121 101.5)" fill="#fff"/>
</svg>
